PathFileType	3	(X/Y/Z)	RCH0000002 BBF 13.c3d
DataRate	CameraRate	NumFrames	NumMarkers	Units	OrigDataRate	OrigDataStartFrame	OrigNumFrames
100.0	100.0	12	23	mm	100.0	142	457
Frame#	Time	T2			T10			MAN			LASI			RASI			LPSI			RPSI			LPAT			LKNE			LANK			LMED			LHEE			LTOE			RPAT			RKNE			RANK			RMED			RHEE			RTOE			RTHI			LTHI			RTIB			LTIB			
		X1	Y1	Z1	X2	Y2	Z2	X3	Y3	Z3	X4	Y4	Z4	X5	Y5	Z5	X6	Y6	Z6	X7	Y7	Z7	X8	Y8	Z8	X9	Y9	Z9	X10	Y10	Z10	X11	Y11	Z11	X12	Y12	Z12	X13	Y13	Z13	X14	Y14	Z14	X15	Y15	Z15	X16	Y16	Z16	X17	Y17	Z17	X18	Y18	Z18	X19	Y19	Z19	X20	Y20	Z20	X21	Y21	Z21	X22	Y22	Z22	X23	Y23	Z23	

142	1.410	-1281.42640	-38.98752	965.52902	-1299.82825	-66.34426	780.78150	-1153.71445	-36.12039	920.65919	-1247.37863	43.58369	635.86561	-1189.99921	-123.55288	623.43821	-1332.06334	-47.99537	681.70995	-1312.44594	-113.58200	674.76452	-1317.63401	22.73768	352.90992	-1382.27330	72.21689	338.34256	-1528.18618	77.42682	102.76950	-1512.35778	9.52619	116.32935	-1547.94435	34.35525	145.60987	-1481.95772	45.73874	77.41365	-1086.91874	-47.04324	392.82919	-1108.75593	-108.86367	346.66608	-1148.98153	-156.76946	84.61801	-1174.89005	-91.22458	87.79447	-1201.28547	-134.81587	112.01733	-1113.42181	-113.14255	75.80725	-1127.49759	-183.30268	453.51726	-1355.84510	131.71572	465.87833	-1110.26548	-192.80135	246.03595	-1453.53878	138.20052	244.13756	
143	1.420	-1269.15568	-40.45202	964.07349	-1286.47530	-66.18906	779.14680	-1141.24877	-36.82231	919.95324	-1234.70179	43.14948	632.98709	-1176.78516	-123.62850	622.81006	-1319.12206	-47.89101	679.95618	-1299.14948	-113.50819	674.39984	-1302.43169	21.07640	349.01893	-1367.62298	70.08747	334.86433	-1521.97622	75.77211	106.36492	-1506.18577	7.66593	118.64166	-1539.99158	32.55639	149.79044	-1477.44201	43.97031	78.58130	-1078.73179	-46.44268	388.31275	-1100.54062	-108.97430	342.88476	-1144.03712	-157.90857	81.65824	-1170.75867	-92.61020	85.27120	-1196.28722	-136.60965	109.45288	-1109.02839	-113.79511	73.42825	-1116.13201	-183.09795	450.46943	-1342.66617	129.72907	462.61082	-1102.29386	-192.96747	242.39298	-1441.31775	136.04390	243.84708	
144	1.430	-1256.94338	-41.72681	962.94371	-1273.03075	-65.73465	777.84261	-1128.81009	-37.33539	919.67070	-1221.83814	42.54306	630.16545	-1163.78487	-123.99333	622.79539	-1306.16338	-47.50139	678.64211	-1285.95726	-113.20631	674.72221	-1286.21278	19.04984	345.22372	-1351.76401	67.77511	331.27467	-1514.35515	74.02718	110.22898	-1498.83280	5.68822	121.19580	-1530.69663	30.75351	154.19394	-1471.72030	42.00682	80.02464	-1071.13605	-46.80910	384.36884	-1093.25189	-109.81430	339.68025	-1140.93862	-159.12287	79.33738	-1168.23030	-94.01628	83.52284	-1192.93532	-138.34260	107.70337	-1106.39100	-114.62317	71.57271	-1105.60940	-183.63229	447.91952	-1328.52400	127.58203	459.25783	-1095.89947	-193.65581	239.18667	-1427.57860	133.76610	243.48928	
145	1.440	-1244.80179	-42.76375	962.20174	-1259.57348	-64.99297	776.94696	-1116.42360	-37.64625	919.83558	-1208.83582	41.74616	627.52224	-1151.06600	-124.67297	623.43569	-1293.23751	-46.85697	677.84987	-1272.93330	-112.70251	675.75602	-1269.10085	16.70057	341.72108	-1334.82084	65.32552	327.76017	-1505.23645	72.18475	114.29571	-1490.14317	3.60170	123.95341	-1519.99820	28.92048	158.72493	-1464.60629	39.89198	81.75063	-1064.22505	-48.18112	381.11953	-1086.94936	-111.42522	337.17084	-1139.24593	-160.40394	77.62985	-1166.91572	-95.44502	82.51017	-1190.86166	-140.04177	106.68857	-1105.08414	-115.59454	70.22840	-1096.00899	-184.93820	445.96948	-1313.47821	125.32448	455.98744	-1090.92455	-194.90611	236.46834	-1412.45601	131.38791	243.15694	
146	1.450	-1232.74253	-43.52698	961.89763	-1246.17654	-63.99418	776.52468	-1104.11333	-37.74777	920.46443	-1195.73891	40.74819	625.18391	-1138.67450	-125.67808	624.74275	-1280.37860	-46.00652	677.64801	-1260.12103	-112.03818	677.49813	-1251.23543	14.09302	338.71817	-1316.95000	62.78755	324.52555	-1494.57455	70.22226	118.47945	-1479.97090	1.40319	126.84982	-1507.86629	27.00058	163.26386	-1455.92837	37.67144	83.74702	-1058.09516	-50.52947	378.61330	-1081.68413	-113.80675	335.41440	-1138.53840	-161.74189	76.46968	-1166.44557	-96.89805	82.14974	-1189.71687	-141.73709	106.28692	-1104.70197	-116.67400	69.34788	-1087.37342	-186.99799	444.67138	-1297.62290	123.00966	452.98645	-1087.20492	-196.72293	234.25246	-1396.14506	128.92230	242.96670	
147	1.460	-1220.77642	-43.99599	962.06535	-1232.90347	-62.78552	776.62187	-1091.90148	-37.63944	921.56395	-1182.58681	39.54851	623.27200	-1126.63331	-127.00254	626.69645	-1267.60561	-45.01310	678.08487	-1247.54295	-111.26656	679.91670	-1232.76113	11.31286	336.41430	-1298.32889	60.21247	321.77523	-1482.36170	68.10556	122.67595	-1468.18851	-0.92009	129.79538	-1494.29988	24.91454	167.67204	-1445.53868	35.38880	85.97928	-1052.83099	-53.75882	376.83475	-1077.48693	-116.91269	334.41295	-1138.45172	-163.11943	75.76762	-1166.49654	-98.36805	82.33002	-1189.19893	-143.44632	106.35708	-1104.88971	-117.82306	68.86127	-1079.70595	-189.74478	444.02657	-1281.08369	120.69170	450.44402	-1084.58694	-199.07190	232.52463	-1378.88026	126.37766	243.04502	
148	1.470	-1208.91308	-44.16769	962.71979	-1219.80582	-61.42833	777.26163	-1079.80759	-37.32746	923.12852	-1169.41445	38.15806	621.89293	-1114.94358	-128.62323	629.24557	-1254.92525	-43.94787	679.18264	-1235.20282	-110.44738	682.95198	-1213.81671	8.46338	334.98219	-1279.14192	57.65274	319.69351	-1468.62039	65.79477	126.76591	-1454.69559	-3.38663	132.68106	-1479.32179	22.57314	171.80010	-1433.32121	33.08141	88.39042	-1048.49152	-57.71798	375.72197	-1074.35772	-120.65181	334.12334	-1138.70020	-164.50659	75.42975	-1166.80682	-99.83192	82.92944	-1189.06945	-145.16220	106.76030	-1105.36298	-118.99895	68.68990	-1072.97246	-193.06969	443.99085	-1264.01126	118.42317	448.53295	-1082.93815	-201.88080	231.25231	-1360.90873	123.76125	243.50965	
149	1.480	-1197.16028	-44.05728	963.85490	-1206.92197	-59.99349	778.44150	-1067.84763	-36.82447	925.13787	-1156.25288	36.59984	621.12811	-1103.58805	-130.50120	632.31127	-1242.33636	-42.88245	680.93291	-1223.08981	-109.64045	686.51905	-1194.52510	5.65837	334.55167	-1259.56496	55.16003	318.42589	-1453.39299	63.25204	130.62109	-1439.42668	-6.01520	135.38798	-1462.97197	19.89312	175.49951	-1419.19815	30.77687	90.90393	-1045.09848	-62.21690	375.18677	-1072.25830	-124.89399	334.47092	-1139.08312	-165.85857	75.37338	-1167.18049	-101.24806	83.83310	-1189.15702	-146.84605	107.37907	-1105.91415	-120.15450	68.75817	-1067.10699	-196.83357	444.48418	-1246.57101	116.25299	447.39088	-1082.14971	-205.04554	230.39553	-1342.46127	121.08208	244.44955	
150	1.490	-1185.52304	-43.69764	965.44337	-1194.27743	-58.55550	780.13267	-1056.03318	-36.14889	927.55535	-1143.13007	34.90835	621.02587	-1092.53595	-132.58426	635.79265	-1229.83483	-41.88109	683.29423	-1211.18393	-108.89879	690.51197	-1174.98601	3.01209	335.19784	-1239.75000	52.78276	318.06445	-1436.73107	60.45011	134.11294	-1422.35725	-8.81862	137.80000	-1445.30098	16.81392	178.63590	-1403.13393	28.49126	93.42996	-1042.62786	-67.04749	375.13289	-1071.10861	-129.48147	335.36327	-1139.47703	-167.11836	75.53720	-1167.48283	-102.55921	84.94520	-1189.34939	-148.43039	108.12896	-1106.40725	-121.23998	69.00180	-1062.01900	-200.88105	445.40343	-1228.92964	114.22464	447.10434	-1082.13068	-208.44043	229.91499	-1323.72555	118.35271	245.90737	
151	1.500	-1174.00285	-43.13731	967.43780	-1181.88624	-57.18607	782.28116	-1044.37059	-35.32399	930.32687	-1130.07134	33.12766	621.59601	-1081.74874	-134.81070	639.57391	-1217.41816	-40.99364	686.19198	-1199.46183	-108.26257	694.80905	-1155.27160	0.62745	336.93552	-1219.81187	50.56301	318.63925	-1418.68621	57.38079	137.12288	-1403.50703	-11.79736	139.81714	-1426.36461	13.31265	181.10231	-1385.13640	26.22966	95.87400	-1041.00567	-72.00500	375.46884	-1070.78726	-134.24355	336.70154	-1139.81846	-168.22409	75.88445	-1167.62970	-103.70083	86.19571	-1189.57849	-149.83024	108.96231	-1106.76507	-122.20735	69.37196	-1057.60068	-205.05492	446.63579	-1211.24016	112.37463	447.69811	-1082.79641	-211.93116	229.77616	-1304.82531	115.59052	247.86849	
152	1.510	-1162.59685	-42.43697	969.77319	-1169.75337	-55.94772	784.81077	-1032.86048	-34.37669	933.38108	-1117.09944	31.30845	622.80770	-1071.18594	-137.11373	643.53200	-1205.08899	-40.25038	689.52081	-1187.90222	-107.75459	699.27860	-1135.42598	-1.41598	339.72040	-1199.81932	48.53353	320.11711	-1399.30421	54.06186	139.55269	-1382.93982	-14.93417	141.36734	-1406.22059	9.41435	182.82978	-1365.25515	23.98920	98.14636	-1040.10857	-76.90667	376.11389	-1071.13603	-139.01258	338.38836	-1140.08226	-169.11957	76.39968	-1167.57447	-104.61299	87.54120	-1189.80262	-150.96043	109.86450	-1106.95225	-123.01622	69.83531	-1053.73313	-209.20877	448.07108	-1193.62748	110.73098	449.13171	-1084.05426	-215.38843	229.94922	-1285.80839	112.81867	250.25926	
153	1.520	-1151.29734	-41.66488	972.37050	-1157.87738	-54.88840	787.62751	-1021.49750	-33.33604	936.63059	-1104.23387	29.50405	624.59094	-1060.81026	-139.42646	647.54418	-1192.85693	-39.65946	693.14942	-1176.49014	-107.37794	703.78490	-1115.46824	-3.07193	343.45620	-1179.79182	46.71502	322.40756	-1378.62276	50.54112	141.33332	-1360.75945	-18.19075	142.41410	-1384.92724	5.19569	183.79342	-1343.57669	21.76414	100.17111	-1039.76960	-81.60544	376.99835	-1071.96798	-143.63879	340.33213	-1140.26080	-169.76541	77.08107	-1167.29539	-105.25290	88.96077	-1189.99011	-151.75440	110.84478	-1106.95844	-123.64004	70.37118	-1050.29120	-213.21666	449.61119	-1176.17687	109.31181	451.30350	-1085.79067	-218.70008	230.40603	-1266.64509	110.06724	252.95529	
